# xmcd CD database file
#
# Track frame offsets:
#	150
#	22314
#	54369
#	73327
#	88973
#	104790
#	126976
#	164032
#	186806
#	207350
#
# Disc length: 2943 seconds
#
# Revision: 0
# Processed by: cddbd v1.4PL0 Copyright (c) Steve Scherf et al.
# Submitted via: CDex 1.50
#
DISCID=a30b7d0a
DTITLE=Various Artist - Java and Jazz
DYEAR=2000
DGENRE=Jazz
TTITLE0=Julian Presley - Chant
TTITLE1=Kasper Villaume Quartet -  Out Run
TTITLE2=Midiri Brothers - My Baby Just Cares for Me
TTITLE3=Lars Moller - Don't Look Back
TTITLE4=James Darrin - Satin Doll
TTITLE5=Alti Bjorn - Willow Weep for Me
TTITLE6=Erik Orum Von Specklesen - Reflection
TTITLE7=Mads Vinding Trio - AUtumn Song
TTITLE8=Hans Ulrik - Letting Go
TTITLE9=Marie Begman - ALl the Way
EXTD=YEAR: 2000
EXTT0=
EXTT1=
EXTT2=
EXTT3=
EXTT4=
EXTT5=
EXTT6=
EXTT7=
EXTT8=
EXTT9=
PLAYORDER=
